<svg version="1.2" xmlns="http://www.w3.org/2000/svg" viewBox="0 0 1202 337" width="100" height="28">
	<title>alastria_logo</title>
	<style>
		.s0 { fill: #192959 }
	</style>
	<g id="Capa 1">
		<g id="&lt;Group&gt;">
			<g id="&lt;Group&gt;">
				<path id="&lt;Path&gt;" class="s0" d="m311.2 243.5c-3.5 0-6.8-1.8-8.7-4.7l-92.2-145.7c-1.8-2.9-2-6.5-0.5-9.5 1.2-2.5 1.8-5.2 1.8-8.1-0.9-24.8-36.3-24.8-37.3 0-0.2 10.5 8.9 18.8 18.8 18.7 3.4 0 6.6 1.7 8.4 4.5l95 150.1c0.5 0.6 0.4 1.4-0.1 2q0 0 0 0.1c-0.4 0.5-1.2 0.8-1.9 0.6l-76.9-24.3c-3.3-1-5.7-3.7-6.6-7-2-8-9.4-14-18-14-24.8 1-24.8 36.4 0 37.3 4.6 0 8.9-1.7 12.1-4.5 2.6-2.2 6.1-2.9 9.3-1.9l72.2 22.8c3.3 1 5.7 3.7 6.5 7 2.1 8 9.5 14 18.1 14 24.8-1 24.8-36.4 0-37.4z"/>
				<path id="&lt;Path&gt;" class="s0" d="m145.6 131.5c-14.2-0.1-22.5 15.2-16.8 26.8 1.5 3.1 1.3 6.7-0.5 9.6l-36.5 57.5c-1.5 2.4-0.8 5.7 1.7 7.2 2.3 1.5 5.6 0.8 7.1-1.6l36.5-57.6c1.8-2.9 5-4.5 8.4-4.5 9.9 0.1 19-8.3 18.8-18.7 0-10.3-8.3-18.7-18.7-18.7z"/>
				<path id="&lt;Path&gt;" class="s0" d="m151.9 231.3l-55.9 18.4c-3.2 1.1-6.7 0.4-9.3-1.8-3.3-2.7-7.4-4.4-12-4.4-24.8 1-24.8 36.4 0 37.4 8.7 0 16.2-6.1 18.1-14.2 0.8-3.3 3.3-6 6.5-7.1l55.9-18.4c2.7-0.9 4.2-3.8 3.3-6.5-0.9-2.8-3.8-4.3-6.6-3.4z"/>
			</g>
		</g>
		<g id="&lt;Group&gt;">
			<g id="&lt;Group&gt;">
				<path id="&lt;Compound Path&gt;" fill-rule="evenodd" class="s0" d="m442 112.5h1.6l55.7 112.2h-19.2l-9.9-20.9h-54.9l-10.4 20.9h-18.7zm20.8 75.9l-20.1-42.3-19.8 42.3z"/>
				<path id="&lt;Compound Path&gt;" class="s0" d="m512.4 114.6h17v94.3h53v15.8h-70z"/>
				<path id="&lt;Compound Path&gt;" fill-rule="evenodd" class="s0" d="m644.8 112.5h1.6l55.8 112.2h-19.2l-9.9-20.9h-54.9l-10.4 20.9h-18.7zm20.8 75.9l-20.1-42.3-19.8 42.3z"/>
				<path id="&lt;Compound Path&gt;" class="s0" d="m753.4 150.7q5.6-13.8 11.2-21.8 5.7-8.1 12.4-11.6 6.7-3.5 15.7-3.5 4.1 0 6.8 0.8v16q-0.6-0.2-1.7-0.3-1-0.1-2.1-0.1-8 0-13.6 5.6-5.6 5.6-11.1 19l-13.8 33.7q-5.6 13.7-11.3 21.9-5.8 8.1-12.7 11.6-6.9 3.5-16.5 3.5-2.4 0-4.7-0.3-2.2-0.3-3.9-0.8v-15.9q2.2 0.6 5.4 0.6 8.9 0 14.8-5.6 5.9-5.6 11.4-19.2z"/>
				<path id="&lt;Compound Path&gt;" class="s0" d="m841.8 130.4h-32.4v-15.8h81.8v15.8h-32.5v94.3h-16.9z"/>
				<path id="&lt;Compound Path&gt;" fill-rule="evenodd" class="s0" d="m907 114.6h32.8q20.5 0 31.6 9.4 11.2 9.4 11.2 26.7 0 10.3-4.5 18.1-4.6 7.7-13 12.2l21 43.7h-18.3l-17.7-38.9q-5.3 0.8-11.4 0.8h-14.7v38.1h-17zm31.2 56.4q26.9 0 26.9-20.3 0-20.4-26.9-20.4h-14.2v40.7z"/>
				<path id="&lt;Compound Path&gt;" class="s0" d="m1002.6 114.6h17.1v110.1h-17.1z"/>
				<path id="&lt;Compound Path&gt;" fill-rule="evenodd" class="s0" d="m1088.6 112.5h1.6l55.7 112.2h-19.1l-9.9-20.9h-54.9l-10.4 20.9h-18.7zm20.8 75.9l-20.2-42.3-19.8 42.3z"/>
			</g>
		</g>
	</g>
</svg>
